<?xml version="1.0"?>
<!--Copyright (c) 2021 Elliot Nunn-->
<!--Licensed under the MIT license-->
<svg width="288" height="164" viewBox="0 0 72 41" xmlns="http://www.w3.org/2000/svg">
	<g id="terminal-window">
		<rect x="0" y="0" width="72" height="41" id="border" fill="black"/>
		<rect x="1" y="3" width="70" height="37" id="background" fill="#373737"/>
		<rect x="1" y="1" width="70" height="1" id="titlebar" fill="#cccccc"/>
		<rect x="1" y="1" width="1" height="1" id="red-button" fill="#ff0000"/>
		<rect x="2" y="1" width="1" height="1" id="green-button" fill="#00be01"/>
	</g>

	<g id="purple-binary-window" transform="translate(3 5)">
		<rect x="0" y="0" width="22" height="18" fill="black"/>
		<rect x="1" y="1" width="20" height="1" fill="#cccccc"/>

		<linearGradient id="purpleGradient" x1="5" y1="17" x2="17" y2="4" gradientUnits="userSpaceOnUse">
			<stop offset="0" stop-color="#666699"/>
			<stop offset="1" stop-color="#ccccff"/>
		</linearGradient>
		<rect fill="url(#purpleGradient)" x="1" y="3" width="20" height="14"/>

		<g id="ones-and-zeros" fill="none" stroke="black">
			<circle cx="5" cy="7" r="1.5"/>
			<line x1="8.5" y1="5" x2="8.5" y2="9"/>
			<line x1="11.5" y1="5" x2="11.5" y2="9"/>
			<circle cx="15" cy="7" r="1.5"/>
			<line x1="18.5" y1="5" x2="18.5" y2="9"/>
			<circle cx="5" cy="13" r="1.5"/>
			<circle cx="10" cy="13" r="1.5"/>
			<circle cx="15" cy="13" r="1.5"/>
		</g>
	</g>

	<g id="blue-text-window" transform="translate(26 5)">
		<rect x="0" y="0" width="21" height="18" fill="black"/>
		<rect x="1" y="1" width="19" height="1" fill="#cccccc"/>

		<linearGradient id="blueGradient" x1="5" y1="16" x2="16" y2="4" gradientUnits="userSpaceOnUse">
			<stop offset="0" stop-color="#679a99"/>
			<stop offset="1" stop-color="#cdfffe"/>
		</linearGradient>
		<rect fill="url(#blueGradient)" x="1" y="3" width="19" height="14"/>

		<g id="lines-of-text" fill="black" stroke="none">
			<rect x="3" y="5" width="11" height="1"/>
			<rect x="4" y="7" width="10" height="1"/>
			<rect x="6" y="9" width="10" height="1"/>
			<rect x="4" y="11" width="10" height="1"/>
			<rect x="5" y="13" width="11" height="1"/>
		</g>
	</g>

	<g id="pink-linker-window" transform="translate(48 5)">
		<rect x="0" y="0" width="21" height="18" fill="black"/>
		<rect x="1" y="1" width="19" height="1" fill="#cccccc"/>

		<linearGradient id="pinkGradient" x1="5" y1="16" x2="16" y2="4" gradientUnits="userSpaceOnUse">
			<stop offset="0" stop-color="#996666"/>
			<stop offset="1" stop-color="#ffcccc"/>
		</linearGradient>
		<rect fill="url(#pinkGradient)" x="1" y="3" width="19" height="14"/>

		<g id="mario-pipes">
			<rect x="3.5" y="8.5" width="4" height="4" fill="none" stroke="black" transform="rotate(45 5.5 10.5)"/>
			<rect x="5" y="5" width="1" height="3" fill="black"/>
			<rect x="5" y="5" width="10" height="1" fill="black"/>
			<rect x="14.5" y="4.5" width="4" height="3" fill="none" stroke="black"/>
			<rect x="16" y="7" width="1" height="5" fill="black"/>
			<circle cx="16.5" cy="13.5" r="2" fill="none" stroke="black"/>
		</g>
	</g>

	<g id="green-mps" fill="#34d000" stroke="none">
		<path transform="translate(6 28)" id="mps-m" d="M 0 0 v5 h1 v-4 h1 v4 h1 v-4 h1 v4 h1 v-4 h-1 v-1 Z"/>
		<path transform="translate(12 28)" id="mps-p" d="M 0 0 h4 v1 h1 v3 h-1 v-3 h-3 v3 h3 v1 h-3 v2 h-1 Z"/>
		<path transform="translate(18 28)" id="mps-s" d="M 1 0 h4 v1 h-4 v1 h3 v1 h1 v1 h-1 v1 h-4 v-1 h4 v-1 h-3 v-1 h-1 v-1 h1 Z"/>
	</g>
</svg>
