<?xml version="1.0"?>
<!--Copyright (c) 2021 Elliot Nunn-->
<!--Licensed under the MIT license-->
<svg width="288" height="164" viewBox="0 0 72 41" xmlns="http://www.w3.org/2000/svg">
	<g id="terminal-window">
		<rect x="0" y="0" width="72" height="41" id="border" fill="black"/>
		<rect x="1" y="3" width="70" height="37" id="background" fill="#373737"/>
		<rect x="1" y="1" width="70" height="1" id="titlebar" fill="#cccccc"/>
		<rect x="1" y="1" width="1" height="1" id="red-button" fill="#ff0000"/>
		<rect x="2" y="1" width="1" height="1" id="green-button" fill="#00be01"/>
	</g>

	<g id="purple-binary-window">
		<rect x="3" y="5" width="22" height="18" fill="black"/>
		<rect x="4" y="6" width="20" height="1" fill="#cccccc"/>

		<linearGradient id="purpleGradient" x1="8" y1="21" x2="20" y2="9" gradientUnits="userSpaceOnUse">
			<stop offset="0" stop-color="#666699"/>
			<stop offset="1" stop-color="#ccccff"/>
		</linearGradient>
		<rect fill="url(#purpleGradient)" x="4" y="8" width="20" height="14"/>

		<g id="ones-and-zeros" fill="none" stroke="black">
			<circle cx="8" cy="12" r="1.5"/>
			<line x1="11.5" y1="10" x2="11.5" y2="14"/>
			<line x1="14.5" y1="10" x2="14.5" y2="14"/>
			<circle cx="18" cy="12" r="1.5"/>
			<line x1="21.5" y1="10" x2="21.5" y2="14"/>
			<circle cx="8" cy="18" r="1.5"/>
			<circle cx="13" cy="18" r="1.5"/>
			<circle cx="18" cy="18" r="1.5"/>
		</g>
	</g>

	<g id="blue-text-window">
		<rect x="26" y="5" width="21" height="18" fill="black"/>
		<rect x="27" y="6" width="19" height="1" fill="#cccccc"/>

		<linearGradient id="blueGradient" x1="31" y1="21" x2="42" y2="9" gradientUnits="userSpaceOnUse">
			<stop offset="0" stop-color="#679a99"/>
			<stop offset="1" stop-color="#cdfffe"/>
		</linearGradient>
		<rect fill="url(#blueGradient)" x="27" y="8" width="19" height="14"/>

		<g id="lines-of-text" fill="black" stroke="none">
			<rect x="29" y="10" width="11" height="1"/>
			<rect x="30" y="12" width="10" height="1"/>
			<rect x="32" y="14" width="10" height="1"/>
			<rect x="30" y="16" width="10" height="1"/>
			<rect x="31" y="18" width="11" height="1"/>
		</g>
	</g>

	<g id="pink-linker-window">
		<rect x="48" y="5" width="21" height="18" fill="black"/>
		<rect x="49" y="6" width="19" height="1" fill="#cccccc"/>

		<linearGradient id="pinkGradient" x1="53" y1="21" x2="64" y2="9" gradientUnits="userSpaceOnUse">
			<stop offset="0" stop-color="#996666"/>
			<stop offset="1" stop-color="#ffcccc"/>
		</linearGradient>
		<rect fill="url(#pinkGradient)" x="49" y="8" width="19" height="14"/>

		<g id="mario-pipes">
			<rect x="51.5" y="13.5" width="4" height="4" fill="none" stroke="black" transform="rotate(45 53.5 15.5)"/>
			<rect x="53" y="10" width="1" height="3" fill="black"/>
			<rect x="53" y="10" width="10" height="1" fill="black"/>
			<rect x="62.5" y="9.5" width="4" height="3" fill="none" stroke="black"/>
			<rect x="64" y="12" width="1" height="5" fill="black"/>
			<circle cx="64.5" cy="18.5" r="2" fill="none" stroke="black"/>
		</g>
	</g>

	<g id="green-mps" fill="none" stroke="#34d000" stroke-linecap="square" >
		<path transform="translate(6 28)" id="mps-m" d="M 0.5 0.5 h 3  M 0.5 0.5 v 4  M 2.5 0.5 v 4	 M 4.5 1.5 v 3"/>
		<path transform="translate(12 28)" id="mps-p" d="M 0.5 0.5 h 3	M 0.5 4.5 h 3  M 4.5 1.5 v 2  M 0.5 0.5 v 6"/>
		<path transform="translate(18 28)" id="mps-s" d="M 4.5 0.5 h -3	 M 0.5 1.5 v 0	M 1.5 2.5 h 2  M 4.5 3.5 v 0  M 3.5 4.5 h -3"/>
	</g>
</svg>
